<?xml version="1.0" encoding="UTF-8" standalone="no"?>
<!DOCTYPE svg PUBLIC "-//W3C//DTD SVG 1.1//EN"
 "http://www.w3.org/Graphics/SVG/1.1/DTD/svg11.dtd">
<!-- Generated by graphviz version 2.47.0 (20210316.0004)
 -->
<!-- Title: dependencies Pages: 1 -->
<svg width="504pt" height="211pt"
 viewBox="0.00 0.00 504.00 211.00" xmlns="http://www.w3.org/2000/svg" xmlns:xlink="http://www.w3.org/1999/xlink">
<g id="graph0" class="graph" transform="scale(1 1) rotate(0) translate(4 207)">
<title>dependencies</title>
<polygon fill="white" stroke="transparent" points="-4,4 -4,-207 500,-207 500,4 -4,4"/>
<text text-anchor="start" x="227.01" y="-42.4" font-family="Times-12" font-weight="bold" font-size="14.00">Legend</text>
<polygon fill="#ffffb3" stroke="transparent" points="14,-10 14,-30 34,-30 34,-10 14,-10"/>
<text text-anchor="start" x="37.63" y="-15.4" font-family="Times-12" font-size="14.00"> &#160;Declarations</text>
<polygon fill="#8dd3c7" stroke="transparent" points="127,-10 127,-30 147,-30 147,-10 127,-10"/>
<text text-anchor="start" x="150.73" y="-15.4" font-family="Times-12" font-size="14.00"> &#160;Module</text>
<polygon fill="#80b1d3" stroke="transparent" points="213,-10 213,-30 233,-30 233,-10 213,-10"/>
<text text-anchor="start" x="236.78" y="-15.4" font-family="Times-12" font-size="14.00"> &#160;Bootstrap</text>
<polygon fill="#fdb462" stroke="transparent" points="310,-10 310,-30 330,-30 330,-10 310,-10"/>
<text text-anchor="start" x="333.67" y="-15.4" font-family="Times-12" font-size="14.00"> &#160;Providers</text>
<polygon fill="#fb8072" stroke="transparent" points="406,-10 406,-30 426,-30 426,-10 406,-10"/>
<text text-anchor="start" x="429.73" y="-15.4" font-family="Times-12" font-size="14.00"> &#160;Exports</text>
<g id="clust1" class="cluster">
<title>cluster_CertificadoModule</title>
<polygon fill="none" stroke="black" stroke-dasharray="1,5" points="88,-70 88,-195 408,-195 408,-70 88,-70"/>
</g>
<g id="clust3" class="cluster">
<title>cluster_CertificadoModule_imports</title>
<polygon fill="none" stroke="black" points="286,-78 286,-130 400,-130 400,-78 286,-78"/>
</g>
<g id="clust6" class="cluster">
<title>cluster_CertificadoModule_providers</title>
<polygon fill="none" stroke="black" points="96,-78 96,-130 278,-130 278,-78 96,-78"/>
</g>
<!-- PrismaModule -->
<g id="node1" class="node">
<title>PrismaModule</title>
<polygon fill="#8dd3c7" stroke="black" points="392.43,-122 389.43,-126 368.43,-126 365.43,-122 293.57,-122 293.57,-86 392.43,-86 392.43,-122"/>
<text text-anchor="middle" x="343" y="-99.8" font-family="Times,serif" font-size="14.00">PrismaModule</text>
</g>
<!-- CertificadoModule -->
<g id="node2" class="node">
<title>CertificadoModule</title>
<polygon fill="#8dd3c7" stroke="black" points="324.02,-187 321.02,-191 300.02,-191 297.02,-187 201.98,-187 201.98,-151 324.02,-151 324.02,-187"/>
<text text-anchor="middle" x="263" y="-164.8" font-family="Times,serif" font-size="14.00">CertificadoModule</text>
</g>
<!-- PrismaModule&#45;&gt;CertificadoModule -->
<g id="edge1" class="edge">
<title>PrismaModule&#45;&gt;CertificadoModule</title>
<path fill="none" stroke="black" d="M309.02,-122.11C309.02,-122.11 309.02,-140.99 309.02,-140.99"/>
<polygon fill="black" stroke="black" points="305.52,-140.99 309.02,-150.99 312.52,-140.99 305.52,-140.99"/>
</g>
<!-- CertificadoService -->
<g id="node3" class="node">
<title>CertificadoService</title>
<ellipse fill="#fdb462" stroke="black" cx="187" cy="-104" rx="83.36" ry="18"/>
<text text-anchor="middle" x="187" y="-99.8" font-family="Times,serif" font-size="14.00">CertificadoService</text>
</g>
<!-- CertificadoService&#45;&gt;CertificadoModule -->
<g id="edge2" class="edge">
<title>CertificadoService&#45;&gt;CertificadoModule</title>
<path fill="none" stroke="black" d="M236.08,-118.75C236.08,-118.75 236.08,-140.59 236.08,-140.59"/>
<polygon fill="black" stroke="black" points="232.58,-140.59 236.08,-150.59 239.58,-140.59 232.58,-140.59"/>
</g>
</g>
</svg>
